<svg xmlns="http://www.w3.org/2000/svg" viewBox="0 0 389.404 120">
  <g fill="#fff">
    <path d="M145.8 23.5h18.7v70.8h-18.7zM241.5 23.5h18.7v70.8h-18.7zM185.2 37.8h18.7v56.5h-18.7z"/>
    <path d="M185.2 23.5h18.7v8.8h-18.7zM330.5 37.8h18.7v56.5h-18.7z"/>
    <path d="M330.5 23.5h18.7v8.8h-18.7zM290.9 37.8h18.7v56.5h-18.7z"/>
    <path d="M290.9 23.5h18.7v8.8h-18.7zM370.7 37.8h18.7v56.5h-18.7z"/>
    <path d="M370.7 23.5h18.7v8.8h-18.7z"/>
  </g>
  <path fill="#fff" d="M89.9 0L89.9 0c-21.1 0-38.2 17.1-38.2 38.2v11.9h18.7V38.2c0-10.8 8.8-19.5 19.5-19.5h0.1c10.8 0 19.5 8.8 19.5 19.5v11.9h18.7V38.2C128.1 17.1 111 0 89.9 0"/>
  <path fill="#fff" d="M89.9 0L89.9 0c-21.1 0-38.2 17.1-38.2 38.2v11.9h18.7V38.2c0-10.8 8.8-19.5 19.5-19.5h0.1c10.8 0 19.5 8.8 19.5 19.5v11.9h18.7V38.2C128.1 17.1 111 0 89.9 0"/>
  <path fill="#fff" d="M89.9 0L89.9 0c-21.1 0-38.2 17.1-38.2 38.2v11.9h18.7V38.2c0-10.8 8.8-19.5 19.5-19.5h0.1c10.8 0 19.5 8.8 19.5 19.5v11.9h18.7V38.2C128.1 17.1 111 0 89.9 0M89.9 120c21.1 0 38.2-17.1 38.2-38.2V50.1h-18.7v31.7c0 10.8-8.8 19.5-19.5 19.5h-0.1c-10.8 0-19.5-8.8-19.5-19.5V50.1H51.7v31.7C51.7 102.9 68.8 120 89.9 120"/>
</svg> 